<svg width="90" height="60" viewBox="0 0 90 60" fill="none" xmlns="http://www.w3.org/2000/svg">
<path d="M84.7009 36.0465C84.1453 35.5753 83.3136 35.644 82.8427 36.1991C82.3718 36.7544 82.44 37.5865 82.9955 38.0573C85.8489 40.4774 87.3594 43.1861 87.3633 45.8904C87.3659 47.7059 86.715 49.2407 85.3733 50.5822C83.1298 52.8259 78.9551 54.4971 72.9654 55.5498C67.5884 56.4946 60.8544 56.9532 52.3723 56.9364C39.2767 56.9186 30.0387 55.7854 24.2587 53.4812C26.4851 51.8971 28.8671 49.9956 31.4216 47.7643C32.1949 48.6894 33.3035 49.3008 34.5463 49.4263C37.1275 49.687 39.4502 47.7761 39.6993 45.1798C39.8658 43.4436 39.8695 41.6953 39.7125 39.9726C42.0267 37.6639 44.1141 35.4846 45.9904 33.4174C47.0471 35.2262 47.7749 37.1325 48.1563 39.1046C48.482 40.7852 48.5624 42.5251 48.3949 44.2763C48.1474 46.8708 50.0425 49.1936 52.6296 49.4549C55.2045 49.7151 57.5088 47.8188 57.7607 45.2047C58.0166 42.5506 57.8929 39.8944 57.3929 37.3095C56.8656 34.587 55.9169 31.9586 54.5688 29.4667C57.1004 29.5458 59.5767 29.7516 61.9669 30.0793C64.1679 32.8682 65.5253 35.9052 65.999 39.1141C66.249 40.8077 66.2511 42.549 66.0048 44.2898C65.6401 46.8708 67.4293 49.2765 69.9947 49.653C72.54 50.0266 74.9537 48.2415 75.321 45.6426C75.6949 42.9971 75.6902 40.3382 75.3066 37.74C75.0758 36.177 74.7046 34.6304 74.1987 33.1163C75.51 33.6197 76.76 34.1708 77.9367 34.7695C78.5756 35.0947 79.3751 34.8495 79.7094 34.1924C80.0397 33.5436 79.7813 32.7497 79.1323 32.4195C71.8871 28.7323 61.8713 26.7001 51.5767 26.796C52.2861 25.8767 52.9469 24.9807 53.5595 24.1069C57.4209 18.5987 59.298 14.0846 59.298 10.3071C59.298 7.70971 58.3945 5.49153 56.6128 3.71473C52.8848 -0.00322005 46.5734 -0.589099 38.8417 2.06467C31.4256 4.60998 23.48 9.86268 16.4686 16.8549C6.31055 26.9855 0 38.8808 0 47.8988C0 51.6385 1.13854 54.7507 3.29273 56.8989C5.07955 58.6808 7.27682 59.5715 9.86748 59.5713C12.61 59.5713 15.7934 58.5732 19.3971 56.5776C20.1357 56.1686 20.8942 55.7164 21.6724 55.2234C27.6847 58.1289 37.7413 59.5534 52.3686 59.5731C60.7294 59.5843 68.0142 59.0971 73.4217 58.1468C80.0474 56.9824 84.5666 55.1179 87.2376 52.4467C89.0742 50.6102 90.0035 48.4031 89.9998 45.8868C89.9949 42.385 88.1626 38.9824 84.7009 36.0465ZM70.9541 32.0064C71.8021 33.9841 72.3906 36.039 72.6986 38.125C73.0452 40.473 73.0492 42.8783 72.7105 45.2735C72.5484 46.4199 71.5061 47.2097 70.3765 47.0439C69.2432 46.8778 68.4534 45.8077 68.6157 44.6589C68.8973 42.6679 68.8945 40.6727 68.6074 38.7289C68.191 35.9078 67.1854 33.2143 65.6135 30.6863C67.465 31.0508 69.2508 31.4915 70.9541 32.0064ZM37.0747 44.9281C36.9719 46.004 36.0923 46.8147 35.0267 46.8147C34.3742 46.8147 33.7825 46.5155 33.3916 46.0089C34.6187 44.8948 35.8842 43.7083 37.1895 42.4485C37.1911 43.2747 37.154 44.1028 37.0747 44.9281ZM54.8044 37.8103C55.2561 40.1466 55.3679 42.5492 55.1362 44.9527C55.0255 46.1023 54.0193 46.9451 52.8845 46.8305C51.746 46.7156 50.9096 45.682 51.0198 44.5271C51.2112 42.5246 51.1188 40.5318 50.7452 38.6034C50.2548 36.0681 49.2722 33.6355 47.8223 31.3574C48.3748 30.7226 48.9073 30.0983 49.4183 29.4848C50.1089 29.4586 50.8059 29.4394 51.5065 29.4326C53.128 32.0654 54.237 34.8806 54.8044 37.8103ZM33.3366 7.36957C35.3331 8.16832 37.2006 9.20455 38.8916 10.4605C40.7969 11.8759 42.5004 13.5736 43.9548 15.5068C44.6048 16.371 44.5017 17.5626 43.7149 18.2787C42.811 19.1012 41.3659 18.9529 40.6248 17.9676C39.416 16.3606 38.0032 14.9519 36.4259 13.7805C34.1378 12.081 31.5236 10.8877 28.6265 10.2114C30.1932 9.16078 31.7677 8.21051 33.3366 7.36957ZM7.46895 32.7817C9.52682 33.4928 11.4601 34.4531 13.227 35.6463C15.1938 36.9748 16.972 38.5947 18.5121 40.4611C19.2008 41.2959 19.1521 42.4922 18.3981 43.2439C17.5338 44.1057 16.0845 44.0221 15.3004 43.0718C14.0203 41.5205 12.5457 40.1762 10.9174 39.0765C9.28793 37.9759 7.48793 37.1197 5.55486 36.5132C6.11895 35.2828 6.75809 34.0359 7.46895 32.7817ZM18.1199 54.271C12.1804 57.5602 7.93951 57.8093 5.15461 55.032C3.48381 53.3657 2.63672 50.9658 2.63672 47.8988C2.63672 45.2051 3.30275 42.1623 4.52865 38.9557C6.30897 39.4894 7.95867 40.2602 9.44156 41.2616C10.8603 42.2198 12.1472 43.3935 13.2664 44.75C15.0342 46.8926 18.3032 47.0619 20.26 45.1107C21.9823 43.3933 22.1052 40.6729 20.5457 38.7829C18.8448 36.7217 16.879 34.9314 14.7027 33.4615C12.8953 32.2409 10.9317 31.2437 8.85111 30.4785C9.93164 28.7674 11.1354 27.0543 12.4523 25.3625C15.1455 25.5144 18.8316 26.2116 22.2311 28.5076C23.65 29.4656 24.9367 30.6393 26.0557 31.9956C27.7175 34.0097 30.7011 34.3059 32.7045 32.6682C34.7224 31.0187 34.9922 28.0367 33.3352 26.0288C32.2879 24.7594 31.1282 23.5814 29.8886 22.5272C29.3342 22.0557 28.5019 22.1227 28.0303 22.6775C27.5585 23.2321 27.6258 24.0642 28.1805 24.5358C29.3024 25.4898 30.3523 26.5566 31.3012 27.7068C32.0379 28.5997 31.9189 29.9042 31.0352 30.6267C30.1491 31.3512 28.8276 31.2124 28.0893 30.3173C26.8093 28.766 25.3348 27.4218 23.7066 26.3223C21.0361 24.5186 17.8773 23.3579 14.4587 22.9055C15.5044 21.6822 16.6066 20.4776 17.7609 19.3002C19.7156 19.7653 21.5831 20.44 23.3202 21.3129C23.9602 21.6346 24.7591 21.3855 25.0901 20.727C25.4171 20.0764 25.1548 19.284 24.5043 18.9571C23.0586 18.2306 21.5323 17.6312 19.9478 17.1588C21.793 15.4262 23.6916 13.82 25.6171 12.3598C29.1444 12.7761 32.2502 13.9637 34.8536 15.8971C36.228 16.918 37.4607 18.148 38.5177 19.5528C40.1878 21.7727 43.4508 22.084 45.4892 20.229C47.2887 18.5914 47.5348 15.88 46.0617 13.9218C44.4554 11.7866 42.5719 9.90996 40.4636 8.34393C39.1954 7.40209 37.8394 6.57117 36.4112 5.85821C37.5163 5.36549 38.6137 4.93096 39.6981 4.55865C42.6217 3.55512 45.2834 3.05625 47.604 3.05625C50.625 3.05625 53.0673 3.90211 54.7515 5.5817C56.037 6.86367 56.6619 8.40932 56.6619 10.3071C56.6619 13.4799 54.8919 17.6136 51.4009 22.5935C49.6561 25.0823 47.4646 27.9894 45.2102 30.3356C37.3549 38.5103 27.8401 48.8879 18.1199 54.271Z" fill="url(#paint0_linear)"/>
<defs>
<linearGradient id="paint0_linear" x1="44.9999" y1="0.426819" x2="44.9999" y2="59.5733" gradientUnits="userSpaceOnUse">
<stop stop-color="#CF00CF"/>
<stop offset="1" stop-color="#1100D0"/>
</linearGradient>
</defs>
</svg>
