<svg width="90" height="71" viewBox="0 0 90 71" fill="none" xmlns="http://www.w3.org/2000/svg">
<path d="M45.5921 35.2795L41.5658 30.4134C43.5789 30.8557 45.5921 31.1875 47.6053 31.5193C49.5 31.8511 51.3947 32.0723 53.4079 32.2935C55.0658 35.9431 56.8421 39.5927 58.8553 43.2423L51.75 39.9245C49.3816 38.9291 47.25 37.2702 45.5921 35.2795ZM54.2368 32.0723C55.8947 35.7219 57.5526 39.4821 58.8553 43.2423L61.2237 37.602C62.5263 34.5054 63 31.1875 62.6447 27.9803L62.1711 22.893L54.2368 32.0723ZM49.2632 25.7684C44.4079 27.8697 41.5658 30.524 41.5658 30.524C43.5789 30.6346 45.5921 30.7452 47.6053 30.9663C49.5 31.1875 51.5132 31.4087 53.4079 31.6299L62.0526 23.0036C58.7368 23.0036 55.7763 23.5565 53.0526 24.3307C51.75 24.5519 50.4474 24.9943 49.2632 25.7684ZM13.6184 25.7684L21.5526 25.879C18.1184 23.4459 14.8026 20.9023 11.6053 18.248C9.71053 18.801 7.93421 19.354 6.03947 19.7963C4.02632 20.3493 2.13158 20.7917 0.11842 21.2341L5.92105 23.9989C8.28947 25.1049 10.8947 25.7684 13.6184 25.7684ZM12.0789 17.5845C15.2763 20.2387 18.4737 23.0036 21.4342 25.879L20.9605 19.7963C20.7237 16.4785 19.6579 13.3819 17.7632 10.5064L14.9211 6.08267L12.0789 17.5845ZM4.73684 13.9349C1.42105 17.8056 0 21.2341 0 21.2341C1.89474 20.4599 3.78947 19.7963 5.68421 19.1328C7.46053 18.4692 9.35526 17.9162 11.25 17.3633L15.0395 6.19327C12.0789 7.5204 9.59211 9.2899 7.57895 11.0594C6.39474 11.8336 5.44737 12.8289 4.73684 13.9349ZM64.3026 13.9349L66.9079 20.9023C68.0921 17.0315 69.6316 13.2713 71.1711 9.51109C69.9868 8.07337 68.8026 6.63564 67.6184 5.19792C66.4342 3.6496 65.25 2.10129 64.1842 0.55297L63.4737 6.63564C63 8.95812 63.3553 11.5018 64.3026 13.9349ZM72 9.84287C70.4605 13.6031 68.8026 17.2527 66.9079 20.9023L72.8289 18.3586C76.0263 17.0315 78.8684 14.9302 81.1184 12.3865L84.5526 8.40515L72 9.84287ZM73.1842 1.99069C68.0921 0.442376 64.1842 0.442376 64.1842 0.442376C65.6053 1.8801 66.9079 3.31782 68.2105 4.75554C69.5132 6.19327 70.6974 7.63099 71.8816 9.06871L84.4342 8.51574C82.0658 6.30386 79.4605 4.75554 76.9737 3.6496C75.7895 2.87545 74.4868 2.32247 73.1842 1.99069ZM16.1053 51.8686L8.52632 49.8779C11.25 52.9746 13.7368 56.2924 16.1053 59.6102C18 59.4996 20.0132 59.389 21.9079 59.389C23.9211 59.389 25.9342 59.2784 28.0658 59.389L23.0921 55.297C21.1974 53.7487 18.7105 52.5322 16.1053 51.8686ZM15.3947 60.0526C13.0263 56.7348 10.6579 53.4169 8.52632 49.8779L7.3421 55.85C6.75 59.0572 6.98684 62.3751 7.93421 65.5823L9.47368 70.4484L15.3947 60.0526ZM21.5526 65.4717C25.8158 62.4857 28.0658 59.4996 28.0658 59.4996C26.0526 59.8314 24.0395 59.942 22.0263 60.1632C20.1316 60.3844 18.1184 60.495 16.2237 60.6056L9.5921 70.559C12.7895 70.0061 15.6316 68.9001 18.1184 67.573C19.3026 67.02 20.4868 66.3565 21.5526 65.4717ZM19.3026 33.7312L13.0263 38.155C17.2895 38.0444 21.6711 38.2655 25.9342 38.3761C27 36.8278 28.1842 35.3901 29.25 33.9524C30.4342 32.4041 31.6184 30.8557 32.9211 29.418L26.5263 30.6346C23.9211 31.1875 21.4342 32.2935 19.3026 33.7312ZM25.8158 39.3715C21.5526 39.1503 17.2895 38.8185 13.0263 38.2656L17.4079 42.6893C19.7763 45.1224 22.7368 47.0025 26.0526 48.219L31.1447 50.0991L25.8158 39.3715ZM34.1053 38.0444C34.2237 33.0676 33.0395 29.5286 33.0395 29.5286C32.0921 31.1875 31.0263 32.8464 29.9605 34.3948C28.8947 35.9431 27.829 37.4914 26.7632 38.9291L31.1447 49.9885C32.5658 47.2237 33.3947 44.4588 33.8684 41.9152C34.1053 40.6986 34.2237 39.3715 34.1053 38.0444ZM46.5395 6.63564C45.4737 5.41911 44.0526 4.31317 42.5132 3.6496L34.5789 0L32.0921 5.6403C31.1447 7.96277 30.6711 10.5064 30.9079 12.9395L31.5 20.3493L37.8947 19.354C39.0789 19.1328 40.2632 18.9116 41.3289 18.5798L36.3553 2.98604L42.1579 18.4692C44.0526 17.8056 45.8289 16.9209 47.4868 15.815L51.8684 12.8289L46.5395 6.63564ZM84.6711 30.4134C83.6053 29.1968 82.1842 28.0909 80.6447 27.4273L72.7105 23.7777L70.2237 29.418C69.2763 31.7405 68.8026 34.2842 69.0395 36.7172L69.6316 44.127L76.0263 43.1317C77.2105 42.9105 78.3947 42.6893 79.4605 42.3575L74.4868 26.6532L80.2895 42.1363C82.1842 41.4728 83.9605 40.588 85.6184 39.4821L90 36.496L84.6711 30.4134ZM82.8947 55.85C81.8289 54.6335 80.4079 53.5275 78.8684 52.864L70.9342 49.2144L68.4474 54.8547C67.5 57.1771 67.0263 59.7208 67.2632 62.1539L67.8553 69.5637L74.25 68.5683C75.4342 68.3471 76.6184 68.126 77.6842 67.7942L72.7105 52.0898L78.5132 67.573C80.4079 66.9094 82.1842 66.0247 83.8421 64.9187L88.2237 61.9327L82.8947 55.85ZM53.7632 50.7627C52.6974 49.5462 51.2763 48.4402 49.7368 47.7766L41.8026 44.127L39.3158 49.7673C38.3684 52.0898 37.8947 54.6335 38.1316 57.0665L38.7237 64.5869L45.1184 63.5916C46.3026 63.3704 47.4868 63.1492 48.5526 62.8174L43.5789 47.1131L49.3816 62.5962C51.2763 61.9327 53.0526 61.0479 54.7105 59.942L59.0921 56.956L53.7632 50.7627Z" fill="url(#paint0_linear)"/>
<defs>
<linearGradient id="paint0_linear" x1="45" y1="0" x2="45" y2="70.559" gradientUnits="userSpaceOnUse">
<stop stop-color="#008AFF"/>
<stop offset="1" stop-color="#CF00CF"/>
</linearGradient>
</defs>
</svg>
