<svg width="102" height="93" viewBox="0 0 102 93" fill="none" xmlns="http://www.w3.org/2000/svg">
<path d="M100.3 74.4H95.2V44.95C95.2 42.3819 92.9166 40.3 90.1 40.3H71.9933L42.6258 19.4695H42.6156L36.5364 15.1528L16.1041 0.66339C15.3922 0.158454 14.4895 -0.0679044 13.5945 0.0341295C12.6996 0.136164 11.8858 0.558228 11.3322 1.20744L9.2446 3.65334C8.13662 4.95107 7.63953 6.597 7.86271 8.22894C8.08588 9.86088 9.01104 11.3451 10.4346 12.355L26.8413 23.9893C27.4352 24.4134 28.1678 24.6437 28.9221 24.6434C29.0653 24.6437 29.2084 24.6354 29.3505 24.6186C30.2458 24.5197 31.0602 24.0976 31.6115 23.4468L35.0217 25.8648L33.983 27.0847C33.139 28.0617 32.7638 29.3082 32.9426 30.5412C33.1076 31.7572 33.8039 32.861 34.8738 33.6025L44.3139 40.3H11.9C9.08335 40.3 6.8 42.3819 6.8 44.95V74.4H1.7C0.761116 74.4 0 75.094 0 75.95V79.05C0.00919788 81.1594 1.57447 82.9988 3.8131 83.5311L6.12 89.821C6.81336 91.7168 8.75781 92.9967 10.9497 93H91.0503C93.2422 92.9967 95.1866 91.7168 95.88 89.821L98.1801 83.5311C100.421 83.0012 101.99 81.1611 102 79.05V75.95C102 75.094 101.239 74.4 100.3 74.4ZM28.934 21.545L12.5256 9.90759C11.8138 9.40263 11.3512 8.66051 11.2397 7.84454C11.1281 7.02857 11.3766 6.20561 11.9306 5.55674L14.0148 3.11084L33.1075 16.6485L28.934 21.545ZM35.7918 18.555L39.1918 20.9684L37.1025 23.4158L33.7025 21.0025L35.7918 18.555ZM36.9495 31.1503C36.5987 30.9078 36.3705 30.546 36.3171 30.1475C36.2583 29.735 36.3852 29.3184 36.669 28.9927L41.8812 22.8718L71.4 43.8015L70.3664 45.0213C67.4838 48.3972 62.1491 49.0106 58.4375 46.3931L56.1 44.7346V43.4C56.1 41.6879 54.5778 40.3 52.7 40.3H49.8508L36.9495 31.1503ZM10.2 44.95C10.2 44.094 10.9611 43.4 11.9 43.4H52.7V54.25C52.7 55.106 53.4611 55.8 54.4 55.8C55.3389 55.8 56.1 55.106 56.1 54.25V48.67L56.3482 48.8467C61.5444 52.514 69.0157 51.6549 73.0507 46.9263L74.0707 45.7157C74.6297 45.0726 74.8809 44.2513 74.7677 43.4372V43.4062H90.1C91.0389 43.4062 91.8 44.1002 91.8 44.9562V74.4H10.2V44.95ZM92.6636 88.8398C92.4323 89.4731 91.7823 89.9002 91.0503 89.9H10.9497C10.2177 89.9002 9.56772 89.4731 9.3364 88.8398L7.4596 83.7H94.5404L92.6636 88.8398ZM98.6 79.05C98.6 79.9061 97.8389 80.6 96.9 80.6H5.1C4.16112 80.6 3.4 79.9061 3.4 79.05V77.5H98.6V79.05Z" fill="url(#paint0_linear)"/>
<path d="M18.7 46.5H15.3C14.3611 46.5 13.6 47.194 13.6 48.05C13.6 48.906 14.3611 49.6 15.3 49.6H18.7C19.6389 49.6 20.4 48.906 20.4 48.05C20.4 47.194 19.6389 46.5 18.7 46.5Z" fill="black"/>
<path d="M45.9 46.5H25.5C24.5611 46.5 23.8 47.194 23.8 48.05C23.8 48.906 24.5611 49.6 25.5 49.6H45.9C46.8389 49.6 47.6 48.906 47.6 48.05C47.6 47.194 46.8389 46.5 45.9 46.5Z" fill="black"/>
<defs>
<linearGradient id="paint0_linear" x1="51" y1="0.0101624" x2="51" y2="93" gradientUnits="userSpaceOnUse">
<stop stop-color="#008AFF"/>
<stop offset="1" stop-color="#CF00CF"/>
</linearGradient>
</defs>
</svg>
