<svg width="83" height="82" viewBox="0 0 83 82" fill="none" xmlns="http://www.w3.org/2000/svg">
<path d="M41.5 82C22.6415 82 10.4561 68.4187 10.4561 47.4095C10.5037 36.1538 13.584 25.1137 19.3805 15.4237C25.4836 5.4767 33.3407 0 41.5 0C49.6593 0 57.5164 5.4767 63.6195 15.4237C69.416 25.1137 72.4963 36.1538 72.5439 47.4095C72.5439 68.4187 60.3585 82 41.5 82ZM41.5 2.24219C25.2949 2.24219 12.7256 26.5219 12.7256 47.4114C12.7256 67.0593 24.0201 79.7578 41.5 79.7578C58.9799 79.7578 70.2744 67.0613 70.2744 47.4114C70.2744 26.5219 57.7051 2.24219 41.5 2.24219Z" fill="url(#paint0_linear)"/>
<path d="M55.8473 18.4878C55.6628 18.4882 55.481 18.4441 55.3177 18.3592C55.1544 18.2744 55.0145 18.1514 54.9103 18.0009C50.7889 12.0559 45.9016 8.64844 41.5 8.64844C41.199 8.64844 40.9104 8.53032 40.6976 8.32008C40.4848 8.10983 40.3652 7.82468 40.3652 7.52734C40.3652 7.23001 40.4848 6.94486 40.6976 6.73461C40.9104 6.52436 41.199 6.40625 41.5 6.40625C46.7374 6.40625 52.1648 10.0751 56.7824 16.735C56.8991 16.9034 56.9671 17.1 56.9791 17.3036C56.991 17.5073 56.9465 17.7104 56.8503 17.8909C56.7541 18.0714 56.6099 18.2226 56.4331 18.3281C56.2564 18.4336 56.0538 18.4895 55.8473 18.4897V18.4878Z" fill="url(#paint1_linear)"/>
<defs>
<linearGradient id="paint0_linear" x1="41.5" y1="0" x2="41.5" y2="82" gradientUnits="userSpaceOnUse">
<stop stop-color="#008AFF"/>
<stop offset="1" stop-color="#CF00CF"/>
</linearGradient>
<linearGradient id="paint1_linear" x1="48.6731" y1="6.40625" x2="48.6731" y2="18.4897" gradientUnits="userSpaceOnUse">
<stop stop-color="#008AFF"/>
<stop offset="1" stop-color="#CF00CF"/>
</linearGradient>
</defs>
</svg>
