<svg width="88" height="88" viewBox="0 0 88 88" fill="none" xmlns="http://www.w3.org/2000/svg">
<g clip-path="url(#clip0)">
<path d="M62.1666 29.1413L53.6688 12.3041V8.42553H54.1368C54.9124 8.42553 55.5411 7.79699 55.5411 7.02128V1.40426C55.5411 0.628545 54.9124 0 54.1368 0H33.8631C33.0876 0 32.4589 0.628545 32.4589 1.40426V7.02128C32.4589 7.79699 33.0876 8.42553 33.8631 8.42553H34.3312V12.3041L25.8334 29.1413C24.8029 31.1831 23.9955 34.5743 23.9955 36.8615V82.8511C23.9955 85.6901 26.3053 88 29.1445 88H58.8553C61.6945 88 64.0043 85.6901 64.0043 82.8511V36.8615C64.0043 34.5741 63.1971 31.1831 62.1666 29.1413ZM35.2674 2.80851H52.7324V5.61702H35.2674V2.80851ZM36.9892 13.271C37.0883 13.0747 37.1397 12.8581 37.1397 12.6383V8.42553H50.8601V12.6383C50.8601 12.8581 50.9116 13.0747 51.0106 13.271L56.3548 23.8596C55.3417 24.188 54.6315 24.7177 54.0168 25.1772C53.1833 25.8005 52.5809 26.2506 51.2381 26.2506C49.8952 26.2506 49.2929 25.8005 48.4593 25.1772C47.4865 24.45 46.2756 23.5447 43.9989 23.5447C41.7223 23.5447 40.5116 24.45 39.5388 25.1774C38.7054 25.8005 38.1033 26.2506 36.7606 26.2506C35.4179 26.2506 34.8158 25.8005 33.9824 25.1774C33.3679 24.7179 32.6577 24.1882 31.6448 23.8598L36.9892 13.271ZM61.1958 82.8511C61.1958 84.1417 60.1459 85.1915 58.8553 85.1915H29.1447C27.8541 85.1915 26.8042 84.1417 26.8042 82.8511V36.8615C26.8042 35.0128 27.5079 32.0569 28.3409 30.4064L30.351 26.4238C31.1571 26.573 31.6615 26.9484 32.3011 27.4264C33.2737 28.1538 34.4846 29.0591 36.761 29.0591C39.0374 29.0591 40.2482 28.1538 41.2209 27.4264C42.0543 26.8033 42.6564 26.3532 43.9991 26.3532C45.3419 26.3532 45.9442 26.8033 46.7778 27.4266C47.7507 28.154 48.9615 29.0591 51.2381 29.0591C53.5149 29.0591 54.7255 28.1538 55.6986 27.4266C56.3382 26.9484 56.8428 26.573 57.649 26.4238L59.6591 30.4066C60.4919 32.0567 61.1958 35.0128 61.1958 36.8615V82.8511Z" fill="url(#paint0_linear)"/>
<path d="M31.017 73.9575C30.2415 73.9575 29.6128 74.586 29.6128 75.3617V80.9787C29.6128 81.7544 30.2415 82.383 31.017 82.383C31.7925 82.383 32.4213 81.7544 32.4213 80.9787V75.3617C32.4213 74.586 31.7925 73.9575 31.017 73.9575Z" fill="url(#paint1_linear)"/>
<path d="M32.7345 31.0513C32.0421 30.7019 31.1977 30.9798 30.8481 31.672C30.2246 32.9073 29.6128 35.4777 29.6128 36.8615V69.7447C29.6128 70.5204 30.2415 71.149 31.017 71.149C31.7925 71.149 32.4213 70.5204 32.4213 69.7447V36.8615C32.4213 35.9121 32.9276 33.7851 33.3554 32.9377C33.7048 32.2453 33.4267 31.4007 32.7345 31.0513Z" fill="url(#paint2_linear)"/>
<path d="M41.3525 14.0426H46.6473C47.4228 14.0426 48.0515 13.414 48.0515 12.6383C48.0515 11.8626 47.4228 11.234 46.6473 11.234H41.3525C40.577 11.234 39.9482 11.8626 39.9482 12.6383C39.9482 13.414 40.577 14.0426 41.3525 14.0426Z" fill="url(#paint3_linear)"/>
</g>
<defs>
<linearGradient id="paint0_linear" x1="43.9999" y1="0" x2="43.9999" y2="88" gradientUnits="userSpaceOnUse">
<stop stop-color="#CF00CF"/>
<stop offset="1" stop-color="#1100D0"/>
</linearGradient>
<linearGradient id="paint1_linear" x1="31.017" y1="73.9575" x2="31.017" y2="82.383" gradientUnits="userSpaceOnUse">
<stop stop-color="#CF00CF"/>
<stop offset="1" stop-color="#1100D0"/>
</linearGradient>
<linearGradient id="paint2_linear" x1="31.5595" y1="30.9004" x2="31.5595" y2="71.149" gradientUnits="userSpaceOnUse">
<stop stop-color="#CF00CF"/>
<stop offset="1" stop-color="#1100D0"/>
</linearGradient>
<linearGradient id="paint3_linear" x1="43.9999" y1="11.234" x2="43.9999" y2="14.0426" gradientUnits="userSpaceOnUse">
<stop stop-color="#CF00CF"/>
<stop offset="1" stop-color="#1100D0"/>
</linearGradient>
<clipPath id="clip0">
<rect width="88" height="88" fill="white"/>
</clipPath>
</defs>
</svg>
